<svg width="23" height="23" viewBox="0 0 23 23" fill="none" xmlns="http://www.w3.org/2000/svg">
<rect width="23" height="23" rx="5" fill="#337DF6"/>
<path d="M11.1672 11.1672C10.0187 11.1672 9.08435 10.2328 9.08435 9.08437C9.08435 7.93594 10.0187 7 11.1672 7C12.3156 7 13.25 7.93438 13.25 9.08281C13.25 10.2313 12.3156 11.1672 11.1672 11.1672Z" fill="#E7F6FF"/>
<path d="M12.4688 12.2078H9.86406C8.28438 12.2078 7 13.4937 7 15.0734V15.5937C7 16.025 7.35 16.375 7.78125 16.375H14.5516C14.9828 16.375 15.3328 16.025 15.3328 15.5937V15.0734C15.3328 13.4937 14.0484 12.2078 12.4688 12.2078Z" fill="#E7F6FF"/>
</svg>
