<svg width="128" height="144" viewBox="0 0 128 144" fill="none" xmlns="http://www.w3.org/2000/svg">
    <ellipse cx="63.4844" cy="80.6432" rx="62.4844" ry="62.3568" fill="#FCFDFF" stroke="#E3E4F6"
        stroke-width="2" stroke-linecap="round" stroke-dasharray="1 5" />
    <path fill-rule="evenodd" clip-rule="evenodd"
        d="M48.5231 51.9738C46.7969 58.1184 41.2229 62.1292 35.1735 62.1303C33.9236 62.1302 32.6529 61.9597 31.3855 61.5992C25.2707 59.8643 21.2799 54.2627 21.2786 48.1835C21.2789 46.9274 21.4489 45.6508 21.8074 44.377C23.5335 38.2318 29.1076 34.2214 35.157 34.2201C36.4068 34.2202 37.6776 34.391 38.9451 34.7513C45.0596 36.4861 49.0505 42.0877 49.0518 48.1669C49.0515 49.4233 48.8818 50.7002 48.5231 51.9738ZM29.4752 68.383L29.6353 67.8148L29.4752 68.383ZM58.0746 46.7933C57.8661 43.2983 56.8664 39.9414 55.2064 36.949L58.0475 35.3574C56.623 32.7893 54.7731 30.4596 52.5597 28.4826L50.396 30.9286C47.8962 28.6963 44.8827 26.9686 41.4519 25.9853L42.3386 22.8548L42.298 22.8432C39.9189 22.1669 37.5162 21.8425 35.1528 21.8428C34.6385 21.8428 34.1263 21.8579 33.6164 21.8884L33.8085 25.152C30.3305 25.3585 26.9892 26.3601 24.01 28.026L22.4286 25.1695C19.8721 26.5989 17.5523 28.456 15.583 30.679L18.0156 32.8551C15.7921 35.3657 14.0712 38.3931 13.09 41.8398L9.97534 40.9461L9.95786 41.0074C9.28445 43.3981 8.96169 45.8128 8.96211 48.1874C8.96169 48.6973 8.97695 49.205 9.00615 49.7104L12.2541 49.5198C12.457 53.0156 13.4505 56.3745 15.1058 59.3694L12.2622 60.9562C13.6827 63.5263 15.5289 65.8594 17.7391 67.8398L19.9067 65.397C22.4031 67.6336 25.4146 69.3649 28.8432 70.3534L27.9508 73.4838L28.0326 73.5072C30.4116 74.184 32.8143 74.508 35.1776 74.5077C35.7058 74.5077 36.2324 74.4917 36.7565 74.4597L36.5591 71.197C40.0366 70.985 43.376 69.9768 46.3525 68.3059L47.9386 71.1603C50.4927 69.7269 52.8097 67.866 54.7755 65.6396L52.3394 63.4675C54.5588 60.9535 56.2764 57.9241 57.2523 54.4751L60.3671 55.3637L60.3725 55.3433C61.0462 52.9524 61.3687 50.5378 61.3684 48.163C61.3684 47.639 61.3526 47.117 61.3217 46.5974L58.0746 46.7933Z"
        fill="#AEE1FF" />
    <path fill-rule="evenodd" clip-rule="evenodd"
        d="M65.1486 16.1917C64.9396 19.3803 62.612 21.9258 59.6316 22.5579C59.0157 22.6883 58.3719 22.7374 57.7098 22.6932C54.5159 22.4821 51.9648 20.1562 51.3294 17.1799C51.1984 16.5649 51.1489 15.9221 51.1925 15.261C51.4014 12.0722 53.729 9.52681 56.7094 8.89469C57.3252 8.7643 57.9692 8.71525 58.6313 8.75932C61.8251 8.97043 64.3762 11.2964 65.0116 14.2726C65.1426 14.8878 65.1923 15.5307 65.1486 16.1917ZM57.4728 26.2117L57.4923 25.9168L57.4728 26.2117ZM69.3137 12.6583C68.8461 10.9689 68.003 9.42973 66.8727 8.13789L68.1064 7.06206C67.1364 5.95343 65.9817 5.00592 64.6847 4.26901L63.8741 5.69246C62.4093 4.86049 60.7442 4.32916 58.9511 4.20584L59.0612 2.58059L59.04 2.57914C57.7972 2.49637 56.5795 2.58838 55.4151 2.8352C55.1617 2.88889 54.9109 2.94978 54.6628 3.01791L55.0982 4.59572C53.4062 5.05991 51.8645 5.89908 50.5705 7.02568L49.4931 5.79219C48.3828 6.75893 47.4337 7.91032 46.6955 9.20423L48.1213 10.0157C47.2879 11.477 46.7561 13.1389 46.6325 14.9288L45.0046 14.8164L45.0024 14.8482C44.9202 16.089 45.0133 17.3049 45.2614 18.4675C45.3145 18.7172 45.375 18.9642 45.4421 19.2086L47.0225 18.7762C47.4875 20.4666 48.3277 22.0074 49.4559 23.3009L48.2206 24.3746C49.1888 25.4847 50.342 26.4342 51.6377 27.1731L52.4507 25.7509C53.9142 26.5853 55.5787 27.1186 57.3712 27.2447L57.2583 28.8705L57.3011 28.8734C58.5439 28.9564 59.7615 28.8643 60.9259 28.6174C61.1861 28.5623 61.4439 28.4995 61.6988 28.4291L61.2609 26.8523C62.9522 26.3855 64.4922 25.5433 65.7843 24.4145L66.8638 25.6465C67.9725 24.678 68.9198 23.5251 69.6559 22.2298L68.2289 21.4206C69.0599 19.9581 69.5899 18.2956 69.7106 16.5051L71.338 16.6151L71.3386 16.6045C71.4209 15.3636 71.3277 14.1478 71.0795 12.9851C71.0248 12.7285 70.9626 12.4746 70.8931 12.2234L69.3137 12.6583Z"
        fill="#C4F1ED" />
    <ellipse cx="63.3011" cy="79.3631" rx="39.946" ry="39.8645" fill="#DCE0F4" />
    <mask id="mask0" mask-type="alpha" maskUnits="userSpaceOnUse" x="23" y="39" width="81"
        height="81">
        <ellipse cx="63.3011" cy="79.3631" rx="39.946" ry="39.8645" fill="white" />
    </mask>
    <g mask="url(#mask0)">
        <path
            d="M84.9233 116.801C82.717 120.213 79.9848 123.254 76.8414 125.811H28.1387C24.9953 123.254 22.2631 120.213 20.0568 116.801V63.271H84.9233V116.801Z"
            fill="#AEC1ED" />
        <path
            d="M21.6312 53.7621H83.3489C84.2148 53.7621 84.9233 54.4753 84.9233 55.3469V63.271H20.0568V55.3469C20.0568 54.4753 20.7653 53.7621 21.6312 53.7621Z"
            fill="#34395E" />
        <path
            d="M81.2585 58.8822C81.5488 58.8822 81.8318 58.7651 82.0368 58.5618C82.2407 58.357 82.3579 58.0746 82.3579 57.7851C82.3579 57.4967 82.2407 57.2145 82.0368 57.0097C81.8316 56.8047 81.5487 56.6879 81.2585 56.6879C80.9698 56.6879 80.6853 56.8049 80.4816 57.0097C80.2763 57.2145 80.159 57.4967 80.159 57.7851C80.159 58.0746 80.2763 58.357 80.4816 58.5618C80.6855 58.7651 80.9699 58.8822 81.2585 58.8822Z"
            fill="#FF005B" />
        <path
            d="M77.5937 58.8822C77.8825 58.8822 78.1669 58.7651 78.3707 58.5603C78.5759 58.357 78.6932 58.0746 78.6932 57.7851C78.6932 57.4967 78.5759 57.2145 78.3707 57.0097C78.1654 56.8047 77.8825 56.6879 77.5937 56.6879C77.3034 56.6879 77.0206 56.8049 76.8153 57.0097C76.6116 57.2145 76.4943 57.4967 76.4943 57.7851C76.4943 58.0733 76.6116 58.357 76.8153 58.5603C77.0206 58.7651 77.3034 58.8822 77.5937 58.8822Z"
            fill="#FFCC31" />
        <path
            d="M74.2955 58.8822C74.5857 58.8822 74.8687 58.7651 75.0723 58.5618C75.2777 58.357 75.3949 58.0746 75.3949 57.7851C75.3949 57.4967 75.2777 57.2145 75.0723 57.0097C74.8687 56.8047 74.5857 56.6879 74.2955 56.6879C74.0067 56.6879 73.7223 56.8049 73.5186 57.0097C73.3133 57.2145 73.196 57.4967 73.196 57.7851C73.196 58.0746 73.3133 58.357 73.5186 58.5618C73.7238 58.7651 74.0067 58.8822 74.2955 58.8822Z"
            fill="#02B6B7" />
        <rect x="20.0568" y="67.6598" width="59.7358" height="51.9335" rx="3" fill="#F6F6F6" />
        <rect x="20.0568" y="109.353" width="18.6903" height="4.02302" rx="2.01151"
            fill="#CAD9ED" />
        <rect x="20.0568" y="115.57" width="18.6903" height="4.02301" rx="2.01151" fill="#CAD9ED" />
        <rect x="17.125" y="78.6317" width="52.7727" height="8.04602" rx="4" fill="#CAD9ED" />
        <rect x="21.8892" y="92.1636" width="48.0085" height="8.04604" rx="4" fill="#CAD9ED" />
    </g>
    <rect x="3.93182" y="77.5345" width="50.2074" height="13.1662" rx="6.58312" fill="#337DF6" />
    <path
        d="M16.9984 84.2473L16.7651 84.1173L16.9984 83.9859C17.4806 83.7173 17.646 83.1202 17.3676 82.6546C17.0893 82.1875 16.4727 82.0275 15.9906 82.2975L15.7565 82.4275V82.1661C15.7565 81.6275 15.3054 81.1919 14.7487 81.1919C14.1919 81.1919 13.7408 81.6276 13.7408 82.1661V82.4275L13.5067 82.2975C13.0245 82.0275 12.4081 82.1875 12.1297 82.6546C11.8514 83.1203 12.016 83.7173 12.4981 83.9859L12.7322 84.1173L12.4981 84.2473C12.0159 84.5173 11.8513 85.113 12.1297 85.5801C12.4081 86.0458 13.0246 86.2058 13.5067 85.9358L13.7408 85.8058V86.0672C13.7408 86.6064 14.1919 87.0436 14.7487 87.0436C15.3054 87.0436 15.7565 86.6065 15.7565 86.0672V85.8058L15.9906 85.9358C16.4728 86.2058 17.0893 86.0458 17.3676 85.5801C17.646 85.113 17.4806 84.5173 16.9984 84.2473Z"
        fill="white" />
    <path
        d="M24.2465 84.2474L24.0124 84.1174L24.2465 83.9859C24.7286 83.7173 24.894 83.1203 24.6156 82.6547C24.3373 82.1876 23.7208 82.0276 23.2387 82.2976L23.0047 82.4276V82.1676C23.0047 81.6276 22.5536 81.1919 21.9969 81.1919C21.4402 81.1919 20.9884 81.6276 20.9884 82.1676V82.4276L20.7551 82.2976C20.2723 82.0276 19.6566 82.1876 19.3775 82.6547C19.0992 83.1204 19.2646 83.7174 19.7466 83.9859L19.9807 84.1174L19.7466 84.2474C19.2645 84.5174 19.0991 85.1131 19.3775 85.5802C19.6558 86.0459 20.2723 86.2059 20.7551 85.9373L20.9884 85.8058V86.0672C20.9884 86.6064 21.4402 87.0436 21.9969 87.0436C22.5536 87.0436 23.0047 86.6065 23.0047 86.0672V85.8058L23.2387 85.9373C23.7209 86.2059 24.3373 86.0459 24.6156 85.5802C24.8939 85.1131 24.7285 84.5174 24.2465 84.2474Z"
        fill="white" />
    <path
        d="M31.4954 84.2474L31.2606 84.1174L31.4954 83.9859C31.9768 83.7173 32.1421 83.1203 31.8631 82.6547C31.584 82.1876 30.9682 82.0276 30.4854 82.2976L30.2521 82.4276V82.1676C30.2521 81.6276 29.8003 81.1919 29.245 81.1919C28.6877 81.1919 28.2365 81.6276 28.2365 82.1676V82.4276L28.0024 82.2976C27.5203 82.0276 26.9038 82.1876 26.6255 82.6547C26.3472 83.1204 26.5126 83.7174 26.9946 83.9859L27.228 84.1174L26.9946 84.2474C26.5125 84.5174 26.3471 85.1131 26.6255 85.5802C26.9038 86.0459 27.5204 86.2059 28.0024 85.9373L28.2365 85.8058V86.0672C28.2365 86.6064 28.6876 87.0436 29.245 87.0436C29.8003 87.0436 30.2521 86.6065 30.2521 86.0672C30.2521 86.0672 30.2521 86.0672 30.2521 86.0657V85.8057L30.4854 85.9372C30.9682 86.2058 31.584 86.0458 31.8631 85.5801C32.1421 85.1131 31.9768 84.5174 31.4954 84.2474Z"
        fill="white" />
    <path
        d="M38.7053 84.2474L38.4713 84.1174L38.7053 83.9859C39.1875 83.7173 39.3528 83.1203 39.0744 82.6547C38.7961 82.1876 38.1796 82.0276 37.6976 82.2976L37.4635 82.4276V82.1676C37.4635 81.6276 37.0125 81.1919 36.4558 81.1919C35.8991 81.1919 35.4473 81.6276 35.4473 82.1676V82.4276L35.214 82.2976C34.7312 82.0276 34.1154 82.1876 33.8364 82.6547C33.5581 83.1204 33.7234 83.7174 34.2055 83.9859L34.4396 84.1174L34.2055 84.2474C33.7233 84.5174 33.558 85.1131 33.8364 85.5802C34.1147 86.0459 34.7312 86.2059 35.214 85.9373L35.4473 85.8058V86.0672C35.4473 86.6064 35.8991 87.0436 36.4558 87.0436C37.0125 87.0436 37.4635 86.6065 37.4635 86.0672V85.8058L37.6976 85.9373C38.1797 86.2059 38.7961 86.0459 39.0744 85.5802C39.3527 85.1131 39.1874 84.5174 38.7053 84.2474Z"
        fill="white" />
    <path
        d="M45.9365 84.2474L45.7017 84.1174L45.9365 83.9859C46.4179 83.7173 46.5832 83.1203 46.3042 82.6547C46.0251 82.1876 45.4093 82.0276 44.9265 82.2976L44.6932 82.4276V82.1676C44.6932 81.6276 44.2414 81.1919 43.6861 81.1919C43.1288 81.1919 42.6776 81.6276 42.6776 82.1676V82.4276L42.4435 82.2976C41.9614 82.0276 41.3449 82.1876 41.0666 82.6547C40.7883 83.1204 40.9537 83.7174 41.4357 83.9859L41.6691 84.1174L41.4357 84.2474C40.9536 84.5174 40.7882 85.1131 41.0666 85.5802C41.3449 86.0459 41.9615 86.2059 42.4435 85.9373L42.6776 85.8058V86.0672C42.6776 86.6064 43.1287 87.0436 43.6861 87.0436C44.2414 87.0436 44.6932 86.6065 44.6932 86.0672C44.6932 86.0672 44.6932 86.0672 44.6932 86.0657V85.8057L44.9265 85.9372C45.4093 86.2058 46.0251 86.0458 46.3042 85.5801C46.5832 85.1131 46.4179 84.5174 45.9365 84.2474Z"
        fill="white" />
    <rect x="3.93182" y="93.6266" width="50.2074" height="13.1662" rx="6.58312" fill="#1154C2" />
    <path
        d="M47.323 103.03C47.0686 102.937 46.9367 103.068 47.0301 103.323L51.1032 114.413C51.1967 114.667 51.4301 114.718 51.6218 114.527L53.7842 112.364C53.976 112.173 54.2897 112.173 54.4818 112.364L56.9734 114.856C57.1651 115.048 57.4788 115.048 57.6707 114.856L58.8563 113.671C59.048 113.479 59.048 113.165 58.8563 112.973L56.3645 110.482C56.1728 110.29 56.1728 109.976 56.3645 109.784L58.5267 107.622C58.7186 107.43 58.6672 107.197 58.4126 107.103L47.323 103.03Z"
        fill="#34395E" />
    <path d="M13.0001 98.125V102.875" stroke="white" stroke-width="2" stroke-linecap="square" />
    <ellipse cx="116.797" cy="39.8548" rx="10.7706" ry="10.7486" fill="#02B6B7" />
    <path
        d="M112.069 38.4406C112.217 38.5364 112.664 38.821 113.41 39.2941C114.156 39.7673 114.728 40.1316 115.125 40.387C115.168 40.415 115.261 40.4759 115.403 40.5698C115.545 40.6637 115.663 40.7395 115.756 40.7974C115.85 40.8553 115.964 40.9202 116.097 40.992C116.23 41.0638 116.355 41.1178 116.473 41.1535C116.591 41.1896 116.7 41.2074 116.8 41.2074H116.807H116.813C116.914 41.2074 117.023 41.1896 117.141 41.1535C117.258 41.1178 117.384 41.0637 117.517 40.992C117.65 40.9201 117.763 40.8552 117.857 40.7974C117.951 40.7395 118.069 40.6637 118.211 40.5698C118.352 40.4758 118.445 40.415 118.489 40.387C118.89 40.1316 119.911 39.4827 121.551 38.4405C121.87 38.237 122.136 37.9914 122.35 37.7039C122.564 37.4165 122.67 37.115 122.67 36.7996C122.67 36.536 122.567 36.3104 122.359 36.1228C122.152 35.9351 121.907 35.8413 121.623 35.8413H111.99C111.654 35.8413 111.396 35.9451 111.215 36.1527C111.034 36.3603 110.943 36.6199 110.943 36.9313C110.943 37.1828 111.063 37.4554 111.303 37.7489C111.543 38.0424 111.798 38.273 112.069 38.4406Z"
        fill="white" />
    <path
        d="M122.016 39.1127C120.585 39.9901 119.499 40.672 118.757 41.1582C118.508 41.3242 118.307 41.4537 118.152 41.5465C117.997 41.6394 117.791 41.7343 117.533 41.8311C117.276 41.928 117.036 41.9763 116.813 41.9763H116.807H116.8C116.578 41.9763 116.338 41.928 116.08 41.8311C115.823 41.7343 115.617 41.6394 115.462 41.5465C115.307 41.4537 115.105 41.3242 114.857 41.1582C114.268 40.767 113.183 40.085 111.604 39.1127C111.355 38.9626 111.135 38.7906 110.943 38.5969V43.3044C110.943 43.5654 111.046 43.7886 111.251 43.9744C111.456 44.1602 111.702 44.2531 111.99 44.2531H121.623C121.911 44.2531 122.158 44.1602 122.363 43.9744C122.568 43.7886 122.67 43.5654 122.67 43.3044V38.5969C122.483 38.7866 122.265 38.9586 122.016 39.1127Z"
        fill="white" />
    <path
        d="M94.5525 101.696V93.5437C94.5525 89.4062 97.9931 86.0402 102.222 86.0402C106.451 86.0402 109.891 89.4062 109.891 93.5437V101.696H116.716V93.5437C116.716 85.7245 110.214 79.3632 102.222 79.3632C94.2297 79.3632 87.7278 85.7245 87.7278 93.5437V101.696H94.5525Z"
        fill="#445EA0" />
    <path
        d="M122.056 130.142C122.056 131.284 121.099 132.218 119.93 132.218H83.7511C82.5818 132.218 81.625 131.284 81.625 130.142V103.772C81.625 102.63 82.5818 101.696 83.7511 101.696H119.93C121.099 101.696 122.056 102.63 122.056 103.772V130.142Z"
        fill="#7C94FF" />
    <path
        d="M84.8884 130.142V103.772C84.8884 102.63 85.8229 101.696 86.965 101.696H83.7015C82.5595 101.696 81.625 102.63 81.625 103.772V130.142C81.625 131.284 82.5595 132.218 83.7015 132.218H86.965C85.8229 132.218 84.8884 131.284 84.8884 130.142Z"
        fill="#5C61DF" />
    <path
        d="M106.799 110.924C106.799 108.706 104.92 106.907 102.603 106.907C100.286 106.907 98.4077 108.706 98.4077 110.924C98.4077 112.704 99.6171 114.212 101.292 114.74V121.284C101.292 121.978 101.879 122.54 102.603 122.54C103.328 122.54 103.915 121.978 103.915 121.284V114.74C105.589 114.213 106.799 112.704 106.799 110.924Z"
        fill="#D7EAFB" />
    <path
        d="M81.625 127.007V130.266C81.625 131.34 82.5755 132.218 83.7371 132.218H119.677C120.839 132.218 121.789 131.34 121.789 130.266V127.007H81.625Z"
        fill="#C0CCFF" />
    <path
        d="M91.8074 101.673V93.5288C91.8074 86.2779 97.1367 80.2854 103.98 79.463C103.452 79.3995 102.915 79.3632 102.37 79.3632C94.7707 79.3632 88.5881 85.7178 88.5881 93.5286V101.672L91.8074 101.673Z"
        fill="#293D7C" />
</svg>
