<svg width="143" height="82" viewBox="0 0 143 82" fill="none" xmlns="http://www.w3.org/2000/svg">
<path fill-rule="evenodd" clip-rule="evenodd" d="M142.655 79.8602C142.655 128.334 149.018 117.306 107.079 141.539C86.1091 153.657 78.8076 159.716 71.502 159.716C64.1964 159.716 56.8949 153.657 35.9214 141.539C-6.01764 117.302 0.344766 128.33 0.344766 79.8562C0.344766 31.3866 -6.01764 42.4104 35.9214 18.1776C56.8909 6.05921 64.1924 0 71.498 0C78.8036 0 86.1051 6.05921 107.075 18.1776C149.014 42.4144 142.651 31.3866 142.651 79.8602H142.655Z" fill="#116DD5" fill-opacity="0.2"/>
<path fill-rule="evenodd" clip-rule="evenodd" d="M123.049 79.86C123.049 114.982 127.659 106.99 97.2702 124.549C82.0777 133.331 76.7845 137.722 71.4913 137.722C66.1981 137.722 60.909 133.331 45.7124 124.549C15.3233 106.986 19.9335 114.978 19.9335 79.8559C19.9335 44.7337 15.3233 52.7258 45.7124 35.1667C60.9049 26.3852 66.1981 21.9944 71.4913 21.9944C76.7845 21.9944 82.0736 26.3852 97.2702 35.1667C127.655 52.7258 123.049 44.7378 123.049 79.86Z" fill="#001687"/>
</svg>
