<svg width="24" height="24" viewBox="0 0 24 24" fill="none" xmlns="http://www.w3.org/2000/svg">
<path d="M12 3.41467L2.66667 10.8813V21.3333H9.33333V16H14.6667V21.3333H21.3333V11.5227C21.3334 11.3227 21.2885 11.1253 21.202 10.945C21.1154 10.7648 20.9894 10.6063 20.8333 10.4813L12 3.41467ZM12 0L22.4987 8.4C22.9668 8.77451 23.3448 9.24946 23.6047 9.78974C23.8646 10.33 23.9997 10.9218 24 11.5213V21.3333C24 22.0406 23.719 22.7189 23.219 23.219C22.7189 23.719 22.0406 24 21.3333 24H2.66667C1.95942 24 1.28115 23.719 0.781048 23.219C0.280951 22.7189 0 22.0406 0 21.3333V10.8813C4.98636e-05 10.4816 0.0899449 10.0871 0.263038 9.72682C0.43613 9.36655 0.687993 9.04981 1 8.8L12 0Z" fill="#6FCF97"/>
</svg>
