<svg width="16" height="13" viewBox="0 0 16 13" fill="none" xmlns="http://www.w3.org/2000/svg">
<path d="M13.9539 0H1.09682C0.491972 0 0 0.510874 0 1.13777V9.91233C0 10.5392 0.491971 11.0501 1.09776 11.0501H5.90083C5.82746 11.3757 5.6318 11.9042 5.10973 12.4453C5.02037 12.5379 4.99309 12.6783 5.042 12.7992C5.08997 12.921 5.20474 13 5.33173 13H9.72184C9.84883 13 9.9636 12.921 10.0116 12.7992C10.0595 12.6773 10.0332 12.5379 9.94384 12.4453C9.42271 11.9051 9.22235 11.3767 9.14427 11.0501H13.9549C14.5597 11.0501 15.0526 10.5402 15.0526 9.91233V1.13777C15.0507 0.510874 14.5588 0 13.9539 0ZM13.7968 8.4499H1.25392V1.30058H13.7968V8.4499Z" fill="#0D9596"/>
<path d="M6.67112 7.10526C6.58491 7.10526 6.49767 7.08679 6.41967 7.04897C6.25751 6.97069 6.15796 6.82467 6.15796 6.66547V3.43998C6.15796 3.28078 6.25854 3.13388 6.41967 3.05648C6.58183 2.9782 6.78093 2.98171 6.93796 3.0644L10.0169 4.6767C10.1698 4.75674 10.2632 4.89924 10.2632 5.05228C10.2632 5.20533 10.1709 5.34783 10.0169 5.42787L6.93796 7.04017C6.85688 7.08327 6.76349 7.10526 6.67112 7.10526Z" fill="#0D9596"/>
</svg>
