<svg width="13" height="13" viewBox="0 0 13 13" fill="none" xmlns="http://www.w3.org/2000/svg">
<path d="M11.4952 4.88589H5.63118C5.59873 4.88589 5.56059 4.86966 5.53949 4.84775L4.77109 4.07935C4.59258 3.90084 4.35484 3.80347 4.10573 3.80347H1.48731C0.665356 3.80428 0 4.46963 0 5.29159V11.5127C0 12.3346 0.665356 13 1.48731 13H11.4944C12.3172 13 12.9826 12.3346 12.9826 11.5127V6.37401C12.9826 5.55124 12.3172 4.88589 11.4952 4.88589Z" fill="white"/>
<path d="M4.10572 3.24564C4.50168 3.24564 4.87331 3.39981 5.15325 3.67974L5.80075 4.32725H11.3597V1.48731C11.3597 0.666979 10.6927 0 9.87241 0H3.11093C2.28978 0 1.6228 0.666979 1.6228 1.48731V3.24564H4.10572Z" fill="white"/>
</svg>
