<svg width="10" height="13" viewBox="0 0 10 13" fill="none" xmlns="http://www.w3.org/2000/svg">
<path d="M8.33511 0H1.50355C0.673892 0 0 0.667875 0 1.48931V11.5099C0 12.3321 0.673892 13 1.50273 13H8.33429C9.16395 13 9.83784 12.3321 9.83784 11.5107V1.48931C9.83784 0.667875 9.16395 0 8.33511 0ZM2.18646 2.70806H5.05583C5.35752 2.70806 5.60265 2.951 5.60265 3.25C5.60265 3.549 5.35752 3.79194 5.05583 3.79194H2.18646C1.88395 3.79194 1.63964 3.549 1.63964 3.25C1.63964 2.951 1.88395 2.70806 2.18646 2.70806ZM7.65138 10.2919H2.18564C1.88395 10.2919 1.63964 10.049 1.63964 9.75C1.63964 9.451 1.88477 9.20806 2.18646 9.20806H7.6522C7.95389 9.20806 8.1982 9.451 8.1982 9.75C8.1982 10.049 7.95389 10.2919 7.65138 10.2919ZM7.65138 8.125H2.18564C1.88395 8.125 1.63964 7.88287 1.63964 7.58306C1.63964 7.28325 1.88477 7.04113 2.18646 7.04113H7.6522C7.95389 7.04113 8.19902 7.28406 8.19902 7.58306C8.19902 7.88206 7.95389 8.125 7.65138 8.125ZM7.65138 5.95806H2.18564C1.88395 5.95806 1.63882 5.71513 1.63882 5.41613C1.63882 5.11713 1.88395 4.875 2.18646 4.875H7.6522C7.95389 4.875 8.1982 5.11713 8.1982 5.41694C8.1982 5.71675 7.95389 5.95806 7.65138 5.95806Z" fill="#0D9596"/>
</svg>
