<svg width="35" height="35" viewBox="0 0 35 35" fill="none" xmlns="http://www.w3.org/2000/svg">
<rect width="35" height="35" rx="5" fill="#FFCC31"/>
<path d="M17.5 9.16719C16.3516 9.16719 15.4172 8.23281 15.4172 7.08437C15.4172 5.93437 16.3516 5 17.5 5C18.6484 5 19.5828 5.93438 19.5828 7.08281C19.5828 8.23281 18.6484 9.16719 17.5 9.16719Z" fill="#FFF7E0"/>
<path d="M25.8328 24.7922C24.6844 24.7922 23.75 23.8578 23.75 22.7094C23.75 21.5609 24.6844 20.625 25.8328 20.625C26.9813 20.625 27.9156 21.5594 27.9156 22.7078C27.9156 23.8563 26.9813 24.7922 25.8328 24.7922Z" fill="#FFF7E0"/>
<path d="M9.16719 24.7922C8.01876 24.7922 7.08438 23.8578 7.08438 22.7094C7.08438 21.5609 8.01876 20.625 9.16719 20.625C10.3156 20.625 11.25 21.5594 11.25 22.7078C11.25 23.8563 10.3156 24.7922 9.16719 24.7922Z" fill="#FFF7E0"/>
<path d="M21.6672 13.0735C21.6672 11.4938 20.3828 10.2095 18.8031 10.2095H16.1984C14.6188 10.2095 13.3344 11.4938 13.3344 13.0735V13.5938C13.3344 14.0251 13.6844 14.3751 14.1156 14.3751H20.8859C21.3172 14.3751 21.6672 14.0251 21.6672 13.5938V13.0735Z" fill="#FFF7E0"/>
<path d="M27.1359 25.833H24.5312C22.9516 25.833 21.6672 27.1174 21.6672 28.6971V29.2189C21.6672 29.6502 22.0172 30.0002 22.4484 30.0002H29.2187C29.65 30.0002 30 29.6502 30 29.2189V28.6986C30 27.1189 28.7156 25.833 27.1359 25.833Z" fill="#FFF7E0"/>
<path d="M10.4688 25.833H7.86406C6.28438 25.833 5 27.1189 5 28.6986V29.2189C5 29.6502 5.35 30.0002 5.78125 30.0002H12.5516C12.9828 30.0002 13.3328 29.6502 13.3328 29.2189V28.6986C13.3328 27.1189 12.0484 25.833 10.4688 25.833Z" fill="#FFF7E0"/>
<path d="M14.1156 22.7077C13.8672 22.7077 13.625 22.5905 13.4735 22.3718C13.2266 22.0171 13.3156 21.5312 13.6703 21.2843L16.7188 19.1733V16.1968C16.7188 15.7655 17.0688 15.4155 17.5 15.4155C17.9313 15.4155 18.2813 15.7655 18.2813 16.1968V19.5827C18.2813 19.839 18.1547 20.0796 17.9453 20.2249L14.5594 22.5687C14.4235 22.664 14.2688 22.7077 14.1156 22.7077Z" fill="#FFF7E0"/>
<path d="M20.8844 22.7074C20.7313 22.7074 20.5766 22.6621 20.4406 22.5683L17.0547 20.2246C16.7 19.9793 16.6109 19.4918 16.8578 19.1371C17.1031 18.784 17.5875 18.6918 17.9438 18.9386L21.3297 21.2824C21.6844 21.5277 21.7734 22.0152 21.5266 22.3699C21.375 22.5902 21.1328 22.7074 20.8844 22.7074Z" fill="#FFF7E0"/>
</svg>
