<svg width="135" height="142" viewBox="0 0 135 142" fill="none" xmlns="http://www.w3.org/2000/svg">
    <circle cx="64.8621" cy="78.2385" r="62.5599" fill="#FCFDFF" stroke="#E3E4F6" stroke-width="2"
        stroke-linecap="round" stroke-dasharray="1 5" />
    <path fill-rule="evenodd" clip-rule="evenodd"
        d="M37.2477 127.898C37.2477 133.855 32.4179 138.685 26.4602 138.685C20.5024 138.685 15.6727 133.855 15.6727 127.898C15.6727 121.94 20.5024 117.11 26.4602 117.11C32.4179 117.11 37.2477 121.94 37.2477 127.898Z"
        fill="#1154C2" />
    <path fill-rule="evenodd" clip-rule="evenodd"
        d="M28.9318 129.72C28.5992 129.392 28.184 129.392 27.8535 129.72C27.6014 129.97 27.3493 130.22 27.1014 130.474C27.0336 130.544 26.9764 130.559 26.8938 130.512C26.7307 130.423 26.557 130.351 26.4002 130.254C25.6693 129.794 25.057 129.203 24.5148 128.538C24.2456 128.207 24.0063 127.854 23.8389 127.455C23.805 127.375 23.8113 127.322 23.877 127.256C24.1292 127.013 24.3749 126.763 24.6227 126.513C24.9681 126.165 24.9681 125.758 24.6207 125.409C24.4236 125.21 24.2267 125.015 24.0296 124.816C23.8262 124.612 23.6249 124.407 23.4195 124.206C23.0869 123.881 22.6716 123.881 22.3411 124.208C22.0869 124.458 21.8433 124.714 21.5848 124.96C21.3454 125.187 21.2247 125.464 21.1993 125.788C21.159 126.316 21.2882 126.813 21.4704 127.299C21.8433 128.303 22.411 129.195 23.0996 130.012C24.0296 131.118 25.1397 131.993 26.4384 132.624C27.023 132.908 27.6289 133.126 28.2878 133.162C28.7411 133.188 29.1352 133.073 29.4509 132.72C29.6669 132.478 29.9106 132.258 30.1394 132.027C30.4783 131.684 30.4804 131.268 30.1436 130.93C29.7411 130.525 29.3365 130.122 28.9318 129.72Z"
        fill="white" />
    <path fill-rule="evenodd" clip-rule="evenodd"
        d="M28.5559 127.752L29.312 127.62C29.1932 126.911 28.8653 126.268 28.3673 125.757C27.8407 125.219 27.1748 124.88 26.4411 124.775L26.3346 125.552C26.9022 125.633 27.4186 125.895 27.8264 126.312C28.2116 126.705 28.4637 127.204 28.5559 127.752Z"
        fill="white" />
    <path fill-rule="evenodd" clip-rule="evenodd"
        d="M29.8208 124.515C28.8995 123.62 27.7338 123.055 26.447 122.88L26.3346 123.66C27.4461 123.811 28.454 124.301 29.2499 125.072C30.0046 125.806 30.4999 126.733 30.6793 127.752L31.4775 127.62C31.2676 126.439 30.6945 125.367 29.8208 124.515Z"
        fill="white" />
    <path fill-rule="evenodd" clip-rule="evenodd"
        d="M39.6089 52.0441C37.8806 58.2088 32.2998 62.2326 26.2431 62.2337C24.9917 62.2337 23.7195 62.0626 22.4505 61.7009C16.3283 59.9604 12.3327 54.3405 12.3314 48.2415C12.3317 46.9813 12.502 45.7005 12.8609 44.4226C14.589 38.2574 20.1699 34.2339 26.2265 34.2326C27.4779 34.2327 28.7502 34.404 30.0193 34.7655C36.1412 36.506 40.1369 42.1258 40.1382 48.2248C40.1379 49.4853 39.968 50.7664 39.6089 52.0441ZM20.5379 68.5067L20.6982 67.9367L20.5379 68.5067ZM49.1719 46.8467C48.9631 43.3404 47.9622 39.9726 46.3002 36.9704L49.1448 35.3736C47.7186 32.7971 45.8664 30.4599 43.6503 28.4764L41.484 30.9304C38.9812 28.6908 35.964 26.9575 32.5291 25.971L33.4169 22.8303L33.3763 22.8186C30.9943 22.1401 28.5886 21.8147 26.2224 21.8149C25.7075 21.8149 25.1946 21.8302 24.6841 21.8607L24.8764 25.1349C21.3943 25.3422 18.0489 26.347 15.0661 28.0183L13.4828 25.1525C10.9232 26.5866 8.60058 28.4498 6.62888 30.6799L9.06445 32.8632C6.83823 35.3819 5.11527 38.4192 4.13293 41.8771L1.01447 40.9805L0.996965 41.042C0.322747 43.4405 -0.000404767 45.863 8.15371e-06 48.2454C-0.000404767 48.757 0.0148733 49.2663 0.0441081 49.7734L3.29603 49.5822C3.4991 53.0894 4.49383 56.4592 6.15113 59.4638L3.30412 61.0558C4.7263 63.6343 6.57478 65.975 8.78763 67.9618L10.9579 65.5111C13.4573 67.755 16.4724 69.4919 19.9051 70.4837L19.0117 73.6242L19.0936 73.6477C21.4755 74.3267 23.881 74.6517 26.2472 74.6515C26.776 74.6515 27.3033 74.6354 27.828 74.6033L27.6304 71.33C31.1121 71.1173 34.4555 70.1058 37.4356 68.4295L39.0237 71.2932C41.5808 69.8551 43.9006 67.9882 45.8688 65.7545L43.4298 63.5753C45.6519 61.0531 47.3715 58.0138 48.3486 54.5536L51.4671 55.4451L51.4726 55.4246C52.1471 53.0259 52.47 50.6035 52.4696 48.2209C52.4696 47.6952 52.4539 47.1715 52.4229 46.6502L49.1719 46.8467Z"
        fill="#C4F1ED" />
    <path fill-rule="evenodd" clip-rule="evenodd"
        d="M56.2559 16.1428C56.0455 19.3411 53.7135 21.8951 50.7285 22.5302C50.1117 22.6613 49.4669 22.7108 48.8039 22.6667C45.6054 22.4562 43.0514 20.1242 42.4163 17.1393C42.2853 16.5224 42.236 15.8777 42.2799 15.2146C42.4903 12.0161 44.8223 9.46218 47.8073 8.82703C48.4241 8.69601 49.0689 8.64657 49.732 8.69051C52.9303 8.90105 55.4843 11.233 56.1195 14.218C56.2505 14.835 56.3 15.4798 56.2559 16.1428ZM48.5692 26.1981L48.5889 25.9023L48.5692 26.1981ZM60.4284 12.597C59.9607 10.9027 59.1171 9.35921 57.9856 8.06391L59.2215 6.98437C58.2505 5.87277 57.0945 4.92285 55.7959 4.18422L54.9835 5.61226C53.517 4.77833 51.8496 4.24604 50.054 4.12303L50.1648 2.49285L50.1436 2.4914C48.899 2.40885 47.6795 2.5016 46.5133 2.74961C46.2595 2.80355 46.0083 2.86473 45.7599 2.93315L46.1953 4.51555C44.5006 4.98178 42.9564 5.82406 41.6601 6.95455L40.5816 5.71775C39.4693 6.68782 38.5184 7.84305 37.7786 9.14113L39.2062 9.95455C38.371 11.4205 37.8378 13.0876 37.7133 14.883L36.0831 14.7708L36.0809 14.8028C35.9981 16.0473 36.0908 17.2669 36.3389 18.4329C36.3919 18.6833 36.4524 18.931 36.5196 19.1761L38.1025 18.7418C38.5674 20.4371 39.4083 21.9822 40.5377 23.2792L39.3001 24.3566C40.2693 25.4697 41.4238 26.4216 42.7212 27.1623L43.5358 25.7354C45.0012 26.5718 46.6679 27.1061 48.4629 27.2319L48.3493 28.8626L48.3921 28.8655C49.6367 28.9483 50.8562 28.8554 52.0223 28.6074C52.283 28.552 52.5411 28.4889 52.7964 28.4182L52.3585 26.8368C54.0524 26.3679 55.595 25.5226 56.8894 24.39L57.97 25.6252C59.0807 24.6534 60.0298 23.4967 60.7675 22.1972L59.3387 21.3861C60.1715 19.9189 60.7029 18.2512 60.8244 16.4553L62.4542 16.5649L62.4548 16.5543C62.5376 15.3096 62.4448 14.0902 62.1967 12.9241C62.142 12.6668 62.0798 12.4121 62.0103 12.1602L60.4284 12.597Z"
        fill="#AEE1FF" />
    <path fill-rule="evenodd" clip-rule="evenodd"
        d="M62.5535 37.6938C56.6023 37.6938 50.9552 38.9947 45.8767 41.3241L48.5 115.384C52.8731 117.024 57.6086 117.923 62.5535 117.923C84.6838 117.923 102.624 99.9631 102.624 77.8085C102.624 55.6539 84.6838 37.6938 62.5535 37.6938Z"
        fill="#DCE0F4" />
    <path fill-rule="evenodd" clip-rule="evenodd"
        d="M95.3147 52.4612H46.2716L48.2751 109.029H99.1857V56.3364C99.1857 54.2053 97.4436 52.4612 95.3147 52.4612Z"
        fill="#1665D8" />
    <path fill-rule="evenodd" clip-rule="evenodd"
        d="M95.256 55.7358H29.0914C24.915 62.0677 22.4828 69.6532 22.4828 77.8086C22.4828 90.4236 28.3017 101.676 37.3968 109.029H95.9146V68.5422V56.3952C95.9146 56.0314 95.6196 55.7358 95.256 55.7358Z"
        fill="#CED9ED" />
    <path fill-rule="evenodd" clip-rule="evenodd"
        d="M105.007 108.702H36.9963C40.447 111.564 44.3837 113.861 48.6662 115.444H98.9508C102.459 115.444 104.65 114.041 105.501 113.736C105.94 113.541 106.223 113.105 106.223 112.624V109.918C106.223 109.246 105.679 108.702 105.007 108.702Z"
        fill="#5C9EFF" />
    <path fill-rule="evenodd" clip-rule="evenodd"
        d="M55.0722 111.978V108.702H36.9962C40.4469 111.565 44.3836 113.861 48.6655 115.444H54.5547C53.8545 115.204 53.3505 114.541 53.3505 113.759C53.3505 112.794 54.1164 112.01 55.0722 111.978Z"
        fill="#5C9EFF" />
    <path fill-rule="evenodd" clip-rule="evenodd"
        d="M41.7035 108.702V110.108C41.7035 111.189 42.587 112.073 43.6661 112.073H70.1606C71.2397 112.073 72.1232 111.189 72.1232 110.108V108.702H41.7035Z"
        fill="#367EE7" />
    <path fill-rule="evenodd" clip-rule="evenodd"
        d="M52.7139 110.108V108.702H41.7035V110.108C41.7035 111.189 42.5864 112.073 43.6661 112.073H54.6766C53.5975 112.073 52.7139 111.189 52.7139 110.108Z"
        fill="#1665D8" />
    <path fill-rule="evenodd" clip-rule="evenodd"
        d="M84.3868 42.0648C83.7918 41.7802 83.1894 41.5078 82.5795 41.2494H47.2666C39.3478 44.6084 32.7143 50.1575 28.2462 57.0713V98.5464C30.7391 102.404 33.907 105.837 37.5959 108.702H89.54V56.268C84.8738 56.268 81.0769 52.7132 81.0769 48.3436C81.0776 45.7884 82.3759 43.5141 84.3868 42.0648Z"
        fill="white" />
    <path fill-rule="evenodd" clip-rule="evenodd"
        d="M38.7878 108.422V45.5089C34.5641 48.6293 30.9736 52.5589 28.2462 57.0713V98.5464C30.5782 102.404 33.5413 105.837 36.9919 108.702H38.8102C38.7968 108.61 38.7878 108.517 38.7878 108.422Z"
        fill="#EDEFF4" />
    <path fill-rule="evenodd" clip-rule="evenodd"
        d="M34.4695 49.198H81.5372C81.5038 48.9172 81.4865 48.632 81.4865 48.3435C81.4865 45.2396 83.4364 42.549 86.2688 41.2493H47.0613C42.3597 43.2077 38.1038 45.9132 34.4695 49.198Z"
        fill="#1665D8" />
    <path fill-rule="evenodd" clip-rule="evenodd"
        d="M38.7876 45.5128C37.2627 46.6398 35.8188 47.8709 34.4695 49.1981H38.7876V45.5128Z"
        fill="#3D4EC6" />
    <path fill-rule="evenodd" clip-rule="evenodd"
        d="M40.4042 46.7849C41.2934 46.7849 42.0397 46.0622 42.0397 45.1476C42.0397 44.5943 41.7625 44.0897 41.3151 43.7891C40.4565 44.3276 39.6202 44.8969 38.8069 45.4968C38.9686 46.2336 39.6273 46.7849 40.4042 46.7849Z"
        fill="white" />
    <path fill-rule="evenodd" clip-rule="evenodd"
        d="M45.3925 46.7848C44.4967 46.7848 43.757 46.0531 43.757 45.1475C43.757 44.1101 44.7128 43.3394 45.7132 43.541C46.4958 43.7034 47.028 44.3799 47.028 45.1475C47.028 46.0602 46.2844 46.7848 45.3925 46.7848Z"
        fill="white" />
    <path fill-rule="evenodd" clip-rule="evenodd"
        d="M78.5549 46.4517H72.2396C71.5623 46.4517 71.0129 45.9017 71.0129 45.2237C71.0129 44.5457 71.5623 43.9957 72.2396 43.9957H78.5549C79.2328 43.9957 79.7816 44.5457 79.7816 45.2237C79.7816 45.9024 79.2328 46.4517 78.5549 46.4517Z"
        fill="#C6DAF7" />
    <path fill-rule="evenodd" clip-rule="evenodd"
        d="M66.7317 46.4517H51.3047C50.6274 46.4517 50.078 45.9017 50.078 45.2237C50.078 44.5457 50.6274 43.9957 51.3047 43.9957H66.7317C67.409 43.9957 67.9584 44.5457 67.9584 45.2237C67.9584 45.9024 67.409 46.4517 66.7317 46.4517Z"
        fill="#C6DAF7" />
    <path fill-rule="evenodd" clip-rule="evenodd"
        d="M62.5081 45.2237C62.5081 44.5457 63.0575 43.9957 63.7348 43.9957H51.3047C50.6274 43.9957 50.078 44.5457 50.078 45.2237C50.078 45.9017 50.6274 46.4517 51.3047 46.4517H63.7348C63.0575 46.4517 62.5081 45.9024 62.5081 45.2237Z"
        fill="#6BA5F9" />
    <path fill-rule="evenodd" clip-rule="evenodd"
        d="M77.371 91.7483H53.6674C53.1575 91.7483 52.7402 91.3306 52.7402 90.82V89.3622C52.7402 88.8516 53.1575 88.434 53.6674 88.434H77.371C77.8809 88.434 78.2982 88.8516 78.2982 89.3622V90.82C78.2982 91.3306 77.8809 91.7483 77.371 91.7483Z"
        fill="#CAD9ED" />
    <path fill-rule="evenodd" clip-rule="evenodd"
        d="M85.3902 91.6943H80.9765C80.4665 91.6943 80.0493 91.2766 80.0493 90.7661V89.3673C80.0493 88.8568 80.4665 88.4391 80.9765 88.4391H85.3902C85.9001 88.4391 86.3174 88.8568 86.3174 89.3673V90.7661C86.3174 91.2766 85.9001 91.6943 85.3902 91.6943Z"
        fill="#FFCC31" />
    <path fill-rule="evenodd" clip-rule="evenodd"
        d="M85.3902 79.2504H80.9765C80.4665 79.2504 80.0493 78.8327 80.0493 78.3222V76.9234C80.0493 76.4129 80.4665 75.9952 80.9765 75.9952H85.3902C85.9001 75.9952 86.3174 76.4129 86.3174 76.9234V78.3222C86.3174 78.8327 85.9001 79.2504 85.3902 79.2504Z"
        fill="#02B6B7" />
    <path fill-rule="evenodd" clip-rule="evenodd"
        d="M45.7892 92.5216C44.7465 92.5216 43.829 91.9788 43.2868 91.1855C43.2868 90.3503 44.955 89.8912 45.7892 89.8912C46.6233 89.8912 48.2915 90.3503 48.2915 91.1855C47.7494 91.9788 46.8318 92.5216 45.7892 92.5216ZM45.7891 86.5929C46.4981 86.5929 47.0403 87.1355 47.0403 87.8453C47.0403 88.555 46.4981 89.098 45.7891 89.098C45.0801 89.098 44.5379 88.555 44.5379 87.8453C44.5379 87.1355 45.0801 86.5929 45.7891 86.5929ZM45.7892 85.3403C43.4953 85.3403 41.6185 87.219 41.6185 89.5155C41.6185 91.8119 43.4953 93.6907 45.7892 93.6907C48.083 93.6907 49.9598 91.8119 49.9598 89.5155C49.9598 87.219 48.083 85.3403 45.7892 85.3403Z"
        fill="#CAD9ED" />
    <path fill-rule="evenodd" clip-rule="evenodd"
        d="M77.371 79.6319H53.6674C53.1575 79.6319 52.7402 79.2142 52.7402 78.7037V77.2458C52.7402 76.7353 53.1575 76.3176 53.6674 76.3176H77.371C77.8809 76.3176 78.2982 76.7353 78.2982 77.2458V78.7037C78.2982 79.2142 77.8809 79.6319 77.371 79.6319Z"
        fill="#CAD9ED" />
    <path fill-rule="evenodd" clip-rule="evenodd"
        d="M45.7892 80.4054C44.7465 80.4054 43.829 79.8627 43.2868 79.0694C43.2868 78.2342 44.955 77.7751 45.7892 77.7751C46.6233 77.7751 48.2915 78.2342 48.2915 79.0694C47.7494 79.8627 46.8318 80.4054 45.7892 80.4054ZM45.7891 74.4765C46.4981 74.4765 47.0403 75.0192 47.0403 75.7289C47.0403 76.4387 46.4981 76.9817 45.7891 76.9817C45.0801 76.9817 44.5379 76.4387 44.5379 75.7289C44.5379 75.0192 45.0801 74.4765 45.7891 74.4765ZM45.7892 73.224C43.4953 73.224 41.6185 75.1027 41.6185 77.3992C41.6185 79.6956 43.4953 81.5744 45.7892 81.5744C48.083 81.5744 49.9598 79.6956 49.9598 77.3992C49.9598 75.1027 48.083 73.224 45.7892 73.224Z"
        fill="#CAD9ED" />
    <path fill-rule="evenodd" clip-rule="evenodd"
        d="M85.3902 67.8111H80.9765C80.4665 67.8111 80.0493 67.3934 80.0493 66.8829V65.4841C80.0493 64.9736 80.4665 64.5559 80.9765 64.5559H85.3902C85.9001 64.5559 86.3174 64.9736 86.3174 65.4841V66.8829C86.3174 67.3934 85.9001 67.8111 85.3902 67.8111Z"
        fill="#2546F2" />
    <path fill-rule="evenodd" clip-rule="evenodd"
        d="M77.371 68.1926H53.6674C53.1575 68.1926 52.7402 67.7749 52.7402 67.2644V65.8065C52.7402 65.296 53.1575 64.8783 53.6674 64.8783H77.371C77.8809 64.8783 78.2982 65.296 78.2982 65.8065V67.2644C78.2982 67.7749 77.8809 68.1926 77.371 68.1926Z"
        fill="#CAD9ED" />
    <path fill-rule="evenodd" clip-rule="evenodd"
        d="M45.7892 68.966C44.7465 68.966 43.829 68.4232 43.2868 67.63C43.2868 66.7947 44.955 66.3356 45.7892 66.3356C46.6233 66.3356 48.2915 66.7947 48.2915 67.63C47.7494 68.4232 46.8318 68.966 45.7892 68.966ZM45.7891 63.0371C46.4981 63.0371 47.0403 63.5797 47.0403 64.2895C47.0403 64.9993 46.4981 65.5423 45.7891 65.5423C45.0801 65.5423 44.5379 64.9993 44.5379 64.2895C44.5379 63.5797 45.0801 63.0371 45.7891 63.0371ZM45.7892 61.7847C43.4953 61.7847 41.6185 63.6633 41.6185 65.9599C41.6185 68.2562 43.4953 70.1351 45.7892 70.1351C48.083 70.1351 49.9598 68.2562 49.9598 65.9599C49.9598 63.6633 48.083 61.7847 45.7892 61.7847Z"
        fill="#CAD9ED" />
    <path fill-rule="evenodd" clip-rule="evenodd"
        d="M115.136 93.5121V87.1823C115.136 86.8229 114.993 86.4799 114.742 86.226C114.491 85.972 114.146 85.8315 113.787 85.8315H94.8963C94.1515 85.8315 93.547 86.4367 93.547 87.1823V93.5121C93.547 96.7594 94.81 99.8124 97.1038 102.109L99.7351 104.743L97.1038 107.377C94.81 109.676 93.547 112.726 93.547 115.973V122.306C93.547 122.665 93.6899 123.008 93.941 123.262C94.1919 123.516 94.5375 123.657 94.8963 123.657L113.787 123.654C114.532 123.654 115.136 123.049 115.136 122.303V115.971C115.136 112.723 113.873 109.67 111.579 107.374L108.948 104.743L111.579 102.106C113.873 99.8124 115.136 96.7594 115.136 93.5121Z"
        fill="#ECEFF1" />
    <path fill-rule="evenodd" clip-rule="evenodd"
        d="M92.1976 88.5331C91.4528 88.5331 90.8483 87.9306 90.8483 87.1823C90.8483 86.4395 91.4528 85.8315 92.1976 85.8315H116.485C117.23 85.8315 117.835 86.4367 117.835 87.1823C117.835 87.928 117.23 88.5331 116.485 88.5331H92.1976Z"
        fill="#607D8B" />
    <path fill-rule="evenodd" clip-rule="evenodd"
        d="M116.485 123.654H92.1976C91.4555 123.654 90.8483 123.046 90.8483 122.303C90.8483 121.56 91.4555 120.952 92.1976 120.952H116.485C117.227 120.952 117.835 121.56 117.835 122.303C117.835 123.046 117.227 123.654 116.485 123.654Z"
        fill="#607D8B" />
    <path fill-rule="evenodd" clip-rule="evenodd"
        d="M96.2455 91.2346V93.512C96.2455 96.0381 97.2278 98.4101 99.0115 100.199C99.0115 100.199 104.341 104.386 104.341 104.743C104.341 104.386 109.671 100.196 109.671 100.196C111.455 98.4101 112.437 96.0353 112.437 93.512V91.2346H96.2455Z"
        fill="#B0BEC5" />
    <path fill-rule="evenodd" clip-rule="evenodd"
        d="M96.2455 120.952V118.675C96.2455 116.149 97.2278 113.777 99.0115 111.988C99.0115 111.991 104.341 107.801 104.341 107.444C104.341 107.801 109.671 111.991 109.671 111.991C111.455 113.777 112.437 116.152 112.437 118.678V120.952H96.2455Z"
        fill="#B0BEC5" />
    <path fill-rule="evenodd" clip-rule="evenodd"
        d="M116.485 120.952H115.136V115.971C115.136 112.723 113.873 109.67 111.579 107.374L111.015 106.812C108.557 109.465 107.04 113.004 107.04 116.9C107.04 119.334 107.639 121.625 108.678 123.654H113.787H116.485C117.227 123.654 117.835 123.046 117.835 122.303C117.835 121.56 117.227 120.952 116.485 120.952Z"
        fill="#FAFAFA" />
    <path fill-rule="evenodd" clip-rule="evenodd"
        d="M121.883 104.743C128.59 104.743 134.027 110.186 134.027 116.9C134.027 123.614 128.59 129.057 121.883 129.057C115.176 129.057 109.739 123.614 109.739 116.9C109.739 110.186 115.176 104.743 121.883 104.743Z"
        fill="#2392F7" />
    <path fill-rule="evenodd" clip-rule="evenodd"
        d="M125.931 122.303C125.585 122.303 125.24 122.171 124.975 121.909L120.927 117.856C120.676 117.602 120.533 117.259 120.533 116.9V111.497C120.533 110.751 121.138 110.146 121.883 110.146C122.627 110.146 123.232 110.751 123.232 111.497V116.341L126.886 119.999C127.412 120.525 127.412 121.382 126.886 121.909C126.621 122.171 126.276 122.303 125.931 122.303Z"
        fill="#FAFAFA" />
    <mask id="mask0" mask-type="alpha" maskUnits="userSpaceOnUse" x="77" y="39" width="47"
        height="18">
        <path fill-rule="evenodd" clip-rule="evenodd"
            d="M81.3384 39.552C79.2692 39.552 77.5918 41.2168 77.5918 43.2707V53.155C77.5918 55.2086 79.2692 56.8734 81.3384 56.8734H119.757C121.826 56.8734 123.504 55.2086 123.504 53.155V43.2707C123.504 41.2168 121.826 39.552 119.757 39.552H81.3384Z"
            fill="white" />
    </mask>
    <g mask="url(#mask0)">
        <path fill-rule="evenodd" clip-rule="evenodd"
            d="M81.3384 39.552C79.2692 39.552 77.5918 41.2168 77.5918 43.2707V53.155C77.5918 55.2086 79.2692 56.8734 81.3384 56.8734H119.757C121.826 56.8734 123.504 55.2086 123.504 53.155V43.2707C123.504 41.2168 121.826 39.552 119.757 39.552H81.3384Z"
            fill="url(#paint0_linear)" />
    </g>
    <path fill-rule="evenodd" clip-rule="evenodd" d="M92.2402 46.9774H118.483V44.6281H92.2402"
        fill="#F9FBFC" />
    <path fill-rule="evenodd" clip-rule="evenodd" d="M92.2402 52.1151H118.483V49.7657H92.2402"
        fill="#F9FBFC" />
    <path fill-rule="evenodd" clip-rule="evenodd"
        d="M80.4147 48.2798L83.5594 51.6608L88.7602 45.5625L86.9323 44.052L83.4815 48.0982L82.175 46.6934L80.4147 48.28V48.2798Z"
        fill="#F9FBFC" />
    <defs>
        <linearGradient id="paint0_linear" x1="51.4712" y1="36.3617" x2="54.0886" y2="67.9738"
            gradientUnits="userSpaceOnUse">
            <stop stop-color="#01C0C1" />
            <stop offset="1" stop-color="#00ACAD" />
        </linearGradient>
    </defs>
</svg>
